HIERARCHY
ROOT Hips
{
	OFFSET 0.000000 121.760803 0.000000
	CHANNELS 6 Xposition Yposition Zposition Xrotation Yrotation Zrotation 
	JOINT Spine
	{
		OFFSET 0.072000 7.257294 -0.789700
		CHANNELS 3 Xrotation Yrotation Zrotation
		JOINT Spine1
		{
			OFFSET 0.000000 12.508769 -0.658067
			CHANNELS 3 Xrotation Yrotation Zrotation
			JOINT Spine1_split
			{
				OFFSET 0.000000 12.508769 -0.658067
				CHANNELS 3 Xrotation Yrotation Zrotation
				JOINT Spine2
				{
					OFFSET 0.000000 12.508769 -0.658067
					CHANNELS 3 Xrotation Yrotation Zrotation
					JOINT Neck
					{
						OFFSET 0.000000 14.033295 7.520400
						CHANNELS 3 Xrotation Yrotation Zrotation
						JOINT Head
						{
							OFFSET 0.000000 8.198502 5.703100
							CHANNELS 3 Xrotation Yrotation Zrotation
							JOINT HeadTop_End
							{
								OFFSET 0.000000 17.760803 13.332701
								CHANNELS 3 Xrotation Yrotation Zrotation
								End Site
								{
									OFFSET 0.000000 0.000000 0.000000
								}
							}
						}
					}
					JOINT LeftShoulder
					{
						OFFSET 6.292450 5.785301 -0.669000
						CHANNELS 3 Xrotation Yrotation Zrotation
						JOINT LeftShoulder_split
						{
							OFFSET 6.292450 5.785301 -0.669000
							CHANNELS 3 Xrotation Yrotation Zrotation
							JOINT LeftArm
							{
								OFFSET 13.907140 -6.093903 1.965100
								CHANNELS 3 Xrotation Yrotation Zrotation
								JOINT LeftForeArm
								{
									OFFSET 34.140198 0.000000 0.000000
									CHANNELS 3 Xrotation Yrotation Zrotation
									JOINT LeftHand
									{
										OFFSET 40.960209 0.000000 0.000000
										CHANNELS 3 Xrotation Yrotation Zrotation
										JOINT LeftHandThumb1
										{
											OFFSET 10.006996 -7.170425 9.573125
											CHANNELS 3 Xrotation Yrotation Zrotation
											JOINT LeftHandThumb2
											{
												OFFSET 1.835007 -1.059448 1.059443
												CHANNELS 3 Xrotation Yrotation Zrotation
												JOINT LeftHandThumb3
												{
													OFFSET 2.112267 -1.219513 1.219518
													CHANNELS 3 Xrotation Yrotation Zrotation
													JOINT LeftHandThumb4
													{
														OFFSET 4.843811 -2.796570 2.796576
														CHANNELS 3 Xrotation Yrotation Zrotation
														End Site
														{
															OFFSET 0.000000 0.000000 0.000000
														}
													}
												}
											}
										}
										JOINT LeftHandIndex1
										{
											OFFSET 18.389847 -0.922348 4.596882
											CHANNELS 3 Xrotation Yrotation Zrotation
											JOINT LeftHandIndex2
											{
												OFFSET 4.711273 0.000000 0.000000
												CHANNELS 3 Xrotation Yrotation Zrotation
												JOINT LeftHandIndex3
												{
													OFFSET 2.886131 0.000000 0.000000
													CHANNELS 3 Xrotation Yrotation Zrotation
													JOINT LeftHandIndex4
													{
														OFFSET 6.145912 0.000000 0.000000
														CHANNELS 3 Xrotation Yrotation Zrotation
														End Site
														{
															OFFSET 0.000000 0.000000 0.000000
														}
													}
												}
											}
										}
										JOINT LeftHandMiddle1
										{
											OFFSET 18.013008 0.000000 0.000000
											CHANNELS 3 Xrotation Yrotation Zrotation
											JOINT LeftHandMiddle2
											{
												OFFSET 4.946693 0.000000 0.000000
												CHANNELS 3 Xrotation Yrotation Zrotation
												JOINT LeftHandMiddle3
												{
													OFFSET 3.342232 0.000000 0.000000
													CHANNELS 3 Xrotation Yrotation Zrotation
													JOINT LeftHandMiddle4
													{
														OFFSET 4.461754 0.000000 0.000000
														CHANNELS 3 Xrotation Yrotation Zrotation
														End Site
														{
															OFFSET 0.000000 0.000000 0.000000
														}
													}
												}
											}
										}
										JOINT LeftHandRing1
										{
											OFFSET 15.849892 -0.102921 -4.126150
											CHANNELS 3 Xrotation Yrotation Zrotation
											JOINT LeftHandRing2
											{
												OFFSET 3.527054 0.000000 0.000000
												CHANNELS 3 Xrotation Yrotation Zrotation
												JOINT LeftHandRing3
												{
													OFFSET 2.961098 0.000000 0.000000
													CHANNELS 3 Xrotation Yrotation Zrotation
													JOINT LeftHandRing4
													{
														OFFSET 4.927200 0.000000 0.000000
														CHANNELS 3 Xrotation Yrotation Zrotation
														End Site
														{
															OFFSET 0.000000 0.000000 0.000000
														}
													}
												}
											}
										}
										JOINT LeftHandPinky1
										{
											OFFSET 12.791824 -0.832031 -6.799156
											CHANNELS 3 Xrotation Yrotation Zrotation
											JOINT LeftHandPinky2
											{
												OFFSET 3.327133 0.000000 0.000000
												CHANNELS 3 Xrotation Yrotation Zrotation
												JOINT LeftHandPinky3
												{
													OFFSET 3.014900 0.000000 0.000000
													CHANNELS 3 Xrotation Yrotation Zrotation
													JOINT LeftHandPinky4
													{
														OFFSET 5.847786 0.000000 0.000000
														CHANNELS 3 Xrotation Yrotation Zrotation
														End Site
														{
															OFFSET 0.000000 0.000000 0.000000
														}
													}
												}
											}
										}
									}
								}
							}
						}
					}
					JOINT RightShoulder
					{
						OFFSET -6.292450 5.785301 -0.669000
						CHANNELS 3 Xrotation Yrotation Zrotation
						JOINT RightShoulder_split
						{
							OFFSET -6.292450 5.785301 -0.669000
							CHANNELS 3 Xrotation Yrotation Zrotation
							JOINT RightArm
							{
								OFFSET -13.907140 -6.093903 1.965100
								CHANNELS 3 Xrotation Yrotation Zrotation
								JOINT RightForeArm
								{
									OFFSET -34.140198 0.000000 0.000000
									CHANNELS 3 Xrotation Yrotation Zrotation
									JOINT RightHand
									{
										OFFSET -40.960209 0.000000 0.000000
										CHANNELS 3 Xrotation Yrotation Zrotation
										JOINT RightHandThumb1
										{
											OFFSET -10.007050 -7.170456 9.573117
											CHANNELS 3 Xrotation Yrotation Zrotation
											JOINT RightHandThumb2
											{
												OFFSET -1.835007 -1.059448 1.059443
												CHANNELS 3 Xrotation Yrotation Zrotation
												JOINT RightHandThumb3
												{
													OFFSET -2.112267 -1.219513 1.219518
													CHANNELS 3 Xrotation Yrotation Zrotation
													JOINT RightHandThumb4
													{
														OFFSET -4.843834 -2.796585 2.796590
														CHANNELS 3 Xrotation Yrotation Zrotation
														End Site
														{
															OFFSET 0.000000 0.000000 0.000000
														}
													}
												}
											}
										}
										JOINT RightHandIndex1
										{
											OFFSET -18.389870 -0.922424 4.596786
											CHANNELS 3 Xrotation Yrotation Zrotation
											JOINT RightHandIndex2
											{
												OFFSET -4.711273 0.000000 0.000000
												CHANNELS 3 Xrotation Yrotation Zrotation
												JOINT RightHandIndex3
												{
													OFFSET -2.886131 0.000000 0.000000
													CHANNELS 3 Xrotation Yrotation Zrotation
													JOINT RightHandIndex4
													{
														OFFSET -6.145920 0.000000 0.000000
														CHANNELS 3 Xrotation Yrotation Zrotation
														End Site
														{
															OFFSET 0.000000 0.000000 0.000000
														}
													}
												}
											}
										}
										JOINT RightHandMiddle1
										{
											OFFSET -18.013008 0.000000 0.000000
											CHANNELS 3 Xrotation Yrotation Zrotation
											JOINT RightHandMiddle2
											{
												OFFSET -4.946693 0.000000 0.000000
												CHANNELS 3 Xrotation Yrotation Zrotation
												JOINT RightHandMiddle3
												{
													OFFSET -3.342232 0.000000 0.000000
													CHANNELS 3 Xrotation Yrotation Zrotation
													JOINT RightHandMiddle4
													{
														OFFSET -4.461754 0.000000 0.000000
														CHANNELS 3 Xrotation Yrotation Zrotation
														End Site
														{
															OFFSET 0.000000 0.000000 0.000000
														}
													}
												}
											}
										}
										JOINT RightHandRing1
										{
											OFFSET -15.849876 -0.102936 -4.126237
											CHANNELS 3 Xrotation Yrotation Zrotation
											JOINT RightHandRing2
											{
												OFFSET -3.527054 0.000000 0.000000
												CHANNELS 3 Xrotation Yrotation Zrotation
												JOINT RightHandRing3
												{
													OFFSET -2.961098 0.000000 0.000000
													CHANNELS 3 Xrotation Yrotation Zrotation
													JOINT RightHandRing4
													{
														OFFSET -4.927200 0.000000 0.000000
														CHANNELS 3 Xrotation Yrotation Zrotation
														End Site
														{
															OFFSET 0.000000 0.000000 0.000000
														}
													}
												}
											}
										}
										JOINT RightHandPinky1
										{
											OFFSET -12.791786 -0.832077 -6.799222
											CHANNELS 3 Xrotation Yrotation Zrotation
											JOINT RightHandPinky2
											{
												OFFSET -3.327133 0.000000 0.000000
												CHANNELS 3 Xrotation Yrotation Zrotation
												JOINT RightHandPinky3
												{
													OFFSET -3.014900 0.000000 0.000000
													CHANNELS 3 Xrotation Yrotation Zrotation
													JOINT RightHandPinky4
													{
														OFFSET -5.847786 0.000000 0.000000
														CHANNELS 3 Xrotation Yrotation Zrotation
														End Site
														{
															OFFSET 0.000000 0.000000 0.000000
														}
													}
												}
											}
										}
									}
								}
							}
						}
					}
				}
			}
		}
	}
	JOINT LeftUpLeg
	{
		OFFSET 13.026900 -6.336304 -1.092800
		CHANNELS 3 Xrotation Yrotation Zrotation
		JOINT LeftLeg
		{
			OFFSET 0.524474 -46.096886 9.782700
			CHANNELS 3 Xrotation Yrotation Zrotation
			JOINT LeftFoot
			{
				OFFSET -0.524474 -53.427422 -12.948200
				CHANNELS 3 Xrotation Yrotation Zrotation
				JOINT LeftToeBase
				{
					OFFSET 0.192200 -14.009700 16.364100
					CHANNELS 3 Xrotation Yrotation Zrotation
					JOINT LeftToe_End
					{
						OFFSET -1.784700 -0.561700 9.474800
						CHANNELS 3 Xrotation Yrotation Zrotation
						End Site
						{
							OFFSET 0.000000 0.000000 0.000000
						}
					}
				}
			}
		}
	}
	JOINT RightUpLeg
	{
		OFFSET -12.883000 -6.336304 -1.092800
		CHANNELS 3 Xrotation Yrotation Zrotation
		JOINT RightLeg
		{
			OFFSET -0.524587 -46.096825 9.782800
			CHANNELS 3 Xrotation Yrotation Zrotation
			JOINT RightFoot
			{
				OFFSET 0.524587 -53.427383 -12.948300
				CHANNELS 3 Xrotation Yrotation Zrotation
				JOINT RightToeBase
				{
					OFFSET -0.192200 -14.009700 16.364100
					CHANNELS 3 Xrotation Yrotation Zrotation
					JOINT RightToe_End
					{
						OFFSET 1.784700 -0.561700 9.474800
						CHANNELS 3 Xrotation Yrotation Zrotation
						End Site
						{
							OFFSET 0.000000 0.000000 0.000000
						}
					}
				}
			}
		}
	}
}
MOTION
Frames: 4
Frame Time: 0.016667
-0.233272 116.261894 0.378374 -7.164287 -4.400769 3.760680 5.302350 2.186046 -2.870170 1.478231 0.730365 -0.788770 0.000000 0.000000 0.000000 1.440798 0.721971 -0.741220 2.260305 5.360285 1.627123 3.299470 -10.639882 2.336762 0.000000 -0.000000 0.000000 -0.595444 -16.332000 -20.041827 0.000000 0.000000 0.000000 11.139996 0.583283 -33.762397 0.009360 -89.545850 0.008808 -131.220829 -7.501358 10.656103 -12.800126 -17.470138 4.121650 1.000138 0.731313 -1.438311 -7.335816 -0.421706 13.147365 -0.000002 0.000000 0.000001 -3.532558 4.254362 -63.954579 3.402091 5.315514 -65.218936 1.034624 3.326115 -34.549825 -0.000000 -0.000001 -0.000000 2.434385 7.296035 -69.364061 3.297866 5.266370 -64.088649 0.787095 2.934904 -30.019566 0.000001 0.000001 -0.000002 4.717026 8.075505 -77.582288 2.056299 4.456882 -49.517649 1.539994 3.959708 -42.490610 0.000001 -0.000000 0.000002 6.410338 8.363742 -80.414549 1.722718 4.149897 -45.074409 0.636279 2.657144 -26.928209 -0.000001 0.000002 -0.000004 0.754162 18.436593 11.539480 0.000000 0.000000 0.000000 10.691748 23.557087 38.362195 -0.000169 97.963901 0.000172 -34.546882 -20.180665 22.179161 20.470545 7.475560 18.843589 4.151704 -12.160915 -33.848013 -6.346077 -41.944055 -36.535454 -0.000004 0.000000 -0.000001 -0.887079 1.427982 12.684524 1.917409 -3.767455 53.934322 3.058002 -4.374573 69.896775 -0.000001 -0.000001 0.000002 0.770908 -5.199594 54.618834 5.563873 -4.568246 101.238580 4.771474 -4.655772 91.407889 -0.000000 0.000001 0.000003 6.934478 -8.544288 63.908755 2.909289 -4.317410 67.934701 1.862840 -3.727203 53.099444 0.000001 0.000001 0.000000 8.373409 -8.171759 73.989930 2.173671 -3.940959 57.745384 1.042007 -2.937906 39.049879 -0.000001 -0.000001 0.000001 -9.718189 11.661916 5.296109 12.429785 7.470608 1.350551 5.811176 0.274716 -6.526148 -0.000001 -0.000003 -0.000001 0.000000 0.000000 0.000000 2.819146 -15.351041 -7.455290 19.202189 -9.119184 -3.385386 -14.949247 -5.608821 7.967904 -2.342332 0.000026 0.000003 -0.000000 0.000001 0.000000 
-0.024636 115.936569 0.338957 -7.082104 -4.555515 3.756903 5.299033 2.114982 -2.858036 1.478230 0.635006 -0.779718 0.000000 0.000000 0.000000 1.440799 0.631946 -0.712958 2.269832 5.220008 1.536724 3.181581 -10.468705 2.168120 -0.000000 -0.000000 0.000000 -0.595444 -16.332002 -20.041827 0.000000 0.000000 0.000000 11.399589 0.974268 -33.753917 -0.115906 -89.758186 -0.116019 -131.360015 -7.634383 10.579099 -12.800127 -17.470137 4.121655 1.000137 0.731312 -1.438309 -7.335816 -0.421705 13.147359 0.000000 -0.000001 -0.000001 -3.532558 4.254365 -63.954572 3.402089 5.315513 -65.218929 1.034626 3.326115 -34.549829 0.000001 0.000000 -0.000004 2.434385 7.296037 -69.364054 3.297869 5.266365 -64.088649 0.787094 2.934904 -30.019566 0.000000 0.000000 -0.000003 4.717026 8.075508 -77.582288 2.056301 4.456882 -49.517649 1.539992 3.959710 -42.490610 -0.000002 -0.000001 -0.000000 6.410336 8.363743 -80.414549 1.722720 4.149897 -45.074413 0.636279 2.657144 -26.928209 -0.000002 0.000000 0.000000 0.751042 18.451083 11.540469 0.000000 0.000000 0.000000 10.590260 23.808728 38.571926 0.000035 97.773133 -0.000068 -34.403034 -20.303933 22.406524 20.470545 7.475563 18.843592 4.151702 -12.160917 -33.848013 -6.346080 -41.944055 -36.535454 0.000006 -0.000001 0.000001 -0.887078 1.427983 12.684525 1.917408 -3.767458 53.934319 3.058004 -4.374572 69.896775 0.000000 -0.000001 0.000000 0.770908 -5.199590 54.618830 5.563874 -4.568244 101.238587 4.771476 -4.655772 91.407896 -0.000001 0.000001 0.000004 6.934478 -8.544287 63.908755 2.909287 -4.317404 67.934701 1.862847 -3.727202 53.099444 0.000000 -0.000001 0.000000 8.373409 -8.171759 73.989937 2.173669 -3.940958 57.745384 1.042007 -2.937907 39.049882 -0.000000 0.000001 -0.000000 -10.449489 11.598292 5.293190 13.584952 7.277978 1.382609 5.308422 0.674879 -6.529342 -0.000054 -0.000005 -0.000004 0.000000 0.000000 -0.000000 2.124600 -15.200830 -7.741431 20.186539 -9.011033 -3.381220 -15.306828 -5.649136 8.103744 -2.342333 0.000022 0.000003 0.000000 -0.000002 0.000000 
0.159534 115.643707 0.290565 -6.999193 -4.707494 3.772964 5.296626 2.051550 -2.863888 1.478230 0.545823 -0.771255 0.000000 0.000000 0.000000 1.440799 0.547799 -0.686543 2.278949 5.079157 1.446695 3.068805 -10.293893 2.008880 0.000000 0.000000 0.000000 -0.595444 -16.331997 -20.041827 0.000000 0.000000 0.000000 11.673893 1.386659 -33.751079 -0.455388 -89.971459 -0.466586 -131.507192 -7.772079 10.489916 -12.800126 -17.470140 4.121656 1.000140 0.731314 -1.438308 -7.335816 -0.421705 13.147357 0.000000 -0.000001 0.000002 -3.532557 4.254365 -63.954572 3.402092 5.315512 -65.218929 1.034624 3.326115 -34.549829 0.000000 0.000000 -0.000003 2.434384 7.296036 -69.364061 3.297865 5.266367 -64.088649 0.787095 2.934904 -30.019566 -0.000001 0.000001 -0.000001 4.717026 8.075507 -77.582288 2.056301 4.456882 -49.517649 1.539994 3.959708 -42.490614 0.000001 -0.000001 0.000005 6.410336 8.363740 -80.414549 1.722720 4.149896 -45.074409 0.636278 2.657144 -26.928205 0.000002 -0.000002 0.000006 0.748014 18.465152 11.541427 0.000000 0.000000 0.000000 10.484203 24.073587 38.792961 -0.000177 97.573794 0.000165 -34.246842 -20.433763 22.645900 20.470545 7.475563 18.843592 4.151704 -12.160918 -33.848013 -6.346078 -41.944048 -36.535450 0.000000 -0.000001 0.000003 -0.887078 1.427983 12.684526 1.917408 -3.767455 53.934322 3.058003 -4.374572 69.896782 0.000000 -0.000000 -0.000000 0.770910 -5.199591 54.618834 5.563873 -4.568247 101.238587 4.771477 -4.655774 91.407896 0.000000 0.000000 -0.000001 6.934477 -8.544291 63.908748 2.909287 -4.317406 67.934701 1.862843 -3.727205 53.099444 0.000001 -0.000002 0.000001 8.373408 -8.171757 73.989930 2.173670 -3.940959 57.745390 1.042009 -2.937907 39.049879 0.000000 0.000000 -0.000002 -11.091622 11.548864 5.265089 14.574094 7.063222 1.405288 4.887967 1.090473 -6.522251 -0.000051 -0.000003 -0.000001 0.000000 0.000000 0.000000 1.475579 -15.052723 -8.016524 21.074873 -8.910928 -3.377919 -15.622039 -5.682530 8.220031 -2.342333 0.000023 0.000003 -0.000000 -0.000000 0.000000 
0.330985 115.369827 0.237611 -6.915830 -4.858102 3.799658 5.294707 1.991936 -2.879332 1.478230 0.459727 -0.763087 0.000000 0.000000 0.000000 1.440798 0.466592 -0.661054 2.287672 4.938015 1.356871 2.959045 -10.117157 1.854505 -0.000000 0.000000 0.000000 -0.595444 -16.332000 -20.041826 0.000000 0.000000 0.000000 11.962421 1.823208 -33.756144 0.042806 -90.210591 0.043188 -131.660694 -7.915242 10.391294 -12.800128 -17.470140 4.121654 1.000139 0.731313 -1.438311 -7.335816 -0.421706 13.147362 0.000001 -0.000000 -0.000001 -3.532558 4.254364 -63.954586 3.402090 5.315512 -65.218929 1.034630 3.326115 -34.549829 0.000001 -0.000001 -0.000002 2.434384 7.296037 -69.364061 3.297868 5.266367 -64.088649 0.787094 2.934903 -30.019566 0.000001 -0.000001 0.000000 4.717026 8.075508 -77.582281 2.056301 4.456883 -49.517649 1.539991 3.959708 -42.490614 0.000001 -0.000000 -0.000001 6.410336 8.363743 -80.414549 1.722719 4.149895 -45.074409 0.636278 2.657143 -26.928209 -0.000001 0.000001 -0.000004 0.744927 18.479492 11.542408 0.000000 0.000000 0.000000 10.372838 24.349269 39.024375 -0.000429 97.366792 0.000392 -34.080810 -20.568824 22.896741 20.470545 7.475563 18.843590 4.151704 -12.160914 -33.848013 -6.346077 -41.944059 -36.535461 0.000001 -0.000002 0.000004 -0.887078 1.427983 12.684530 1.917409 -3.767456 53.934322 3.058003 -4.374571 69.896782 -0.000002 -0.000001 0.000000 0.770908 -5.199592 54.618830 5.563873 -4.568244 101.238587 4.771477 -4.655774 91.407896 -0.000000 -0.000001 -0.000006 6.934479 -8.544287 63.908755 2.909286 -4.317407 67.934701 1.862844 -3.727203 53.099444 0.000000 -0.000001 0.000001 8.373410 -8.171757 73.989937 2.173674 -3.940959 57.745384 1.042005 -2.937907 39.049882 -0.000001 0.000001 0.000001 -11.680901 11.508616 5.221692 15.464824 6.830065 1.425764 4.515942 1.521135 -6.510219 -0.000132 0.000002 0.000001 -0.000000 0.000002 -0.000000 0.855889 -14.906116 -8.283883 21.902685 -8.813548 -3.375124 -15.910290 -5.711825 8.324762 -2.342333 0.000020 0.000004 -0.000000 0.000001 -0.000000 
